<?xml version="1.0" standalone="no"?>
<!DOCTYPE svg PUBLIC "-//W3C//DTD SVG 20010904//EN"
 "http://www.w3.org/TR/2001/REC-SVG-20010904/DTD/svg10.dtd">
<svg version="1.0" xmlns="http://www.w3.org/2000/svg"
 width="512.000000pt" height="512.000000pt" viewBox="0 0 512.000000 512.000000"
 preserveAspectRatio="xMidYMid meet">
<metadata>
Created by potrace 1.14, written by Peter Selinger 2001-2017
</metadata>
<g transform="translate(0.000000,512.000000) scale(0.100000,-0.100000)"
fill="#000000" stroke="none">
<path d="M1470 5114 c-616 -23 -942 -120 -1153 -343 -171 -182 -255 -428 -298
-871 -14 -150 -22 -2212 -9 -2500 15 -318 45 -518 109 -706 126 -375 383 -569
856 -644 266 -42 357 -45 1585 -45 1228 0 1319 3 1585 45 576 92 840 361 929
945 38 253 41 359 41 1565 0 1228 -3 1319 -45 1585 -91 571 -354 834 -925 925
-252 40 -328 42 -1475 45 -613 1 -1153 0 -1200 -1z m2414 -1234 c57 -22 106
-32 123 -26 17 7 17 6 2 -9 -14 -14 -39 -17 -156 -17 -77 1 -146 2 -154 4 -10
2 -13 -5 -10 -27 3 -30 20 -70 21 -48 0 7 14 10 38 8 20 -2 71 -6 112 -9 41
-2 83 -8 93 -11 14 -6 17 -2 17 24 0 21 5 31 15 31 9 0 15 -9 15 -25 0 -15 5
-25 13 -24 28 3 48 -2 42 -11 -4 -7 3 -7 20 0 37 14 43 13 50 -11 5 -14 10
-18 17 -11 10 10 56 -3 68 -19 3 -4 14 -8 24 -10 10 -2 24 -13 30 -24 6 -11
12 -22 14 -25 7 -10 22 27 23 60 2 30 3 31 6 8 2 -16 9 -28 14 -28 5 0 9 -8 9
-19 0 -20 49 -31 136 -31 24 0 44 -4 44 -8 0 -9 -13 -10 -105 -13 -67 -2 -85
-14 -37 -25 15 -4 35 -14 46 -23 10 -9 20 -15 22 -13 14 8 24 -1 19 -17 -3
-12 0 -21 10 -25 11 -4 14 -13 10 -26 -4 -11 -2 -20 4 -20 6 0 11 5 11 11 0 8
5 8 15 -1 8 -7 14 -20 13 -29 -2 -11 5 -16 27 -18 53 -2 55 -3 55 -12 0 -5
-13 -11 -29 -14 -24 -5 -28 -10 -24 -27 6 -22 19 -26 26 -7 2 6 8 9 12 5 4 -4
3 -14 -4 -22 -9 -11 -9 -15 0 -18 11 -4 15 -52 7 -89 -2 -8 5 -14 17 -14 11 0
30 -6 42 -13 12 -6 34 -13 50 -13 18 -1 9 -5 -27 -13 -34 -7 -50 -15 -42 -19
15 -10 16 -57 0 -57 -9 0 -9 -3 0 -12 9 -9 7 -17 -9 -34 l-21 -23 23 5 24 6
-24 -20 c-22 -18 -22 -19 -5 -27 11 -4 37 -9 59 -10 22 -1 51 -3 65 -4 23 -2
24 -3 5 -11 -28 -12 -79 -12 -91 0 -8 8 -11 -11 -11 -63 0 -41 -4 -80 -7 -86
-15 -24 -25 -9 -24 38 1 28 -4 57 -11 65 -7 8 -10 20 -6 26 3 5 1 10 -5 10 -7
0 -9 -12 -4 -35 4 -21 2 -35 -4 -35 -6 0 -8 -9 -5 -21 4 -12 -3 -32 -17 -51
-18 -25 -20 -32 -9 -39 19 -12 39 -11 39 1 0 12 63 3 95 -13 19 -10 18 -11
-10 -21 -17 -6 -45 -19 -62 -29 l-33 -18 0 27 c0 22 -3 25 -22 20 -13 -3 -29
-6 -35 -6 -7 0 -13 -9 -13 -20 0 -11 -14 -32 -30 -47 -18 -16 -28 -33 -25 -43
6 -18 -42 -50 -64 -42 -7 2 -17 -2 -22 -9 -13 -20 -11 -26 9 -26 9 1 30 0 46
-1 l29 -2 -39 -26 c-36 -25 -38 -25 -52 -7 -13 17 -14 16 -9 -7 3 -14 2 -41
-2 -60 l-8 -35 -8 40 c-11 55 -13 58 -38 34 -12 -11 -33 -27 -47 -34 -31 -16
-156 -36 -176 -28 -18 7 -64 -41 -54 -57 8 -13 54 -16 86 -6 12 3 34 2 50 -5
34 -13 148 -14 170 -1 16 9 84 -7 84 -20 0 -4 18 -11 40 -14 22 -4 40 -11 40
-16 0 -6 -13 -7 -32 -2 -18 4 -60 6 -93 4 -33 -1 -71 -3 -85 -2 -32 1 -205 0
-288 -2 -44 -1 -66 -6 -72 -16 -7 -10 -10 -11 -10 -2 0 7 -13 12 -30 12 -22 0
-30 5 -30 17 0 13 -3 14 -12 5 -8 -8 -8 -15 1 -25 13 -17 5 -47 -14 -47 -16 0
-26 25 -19 45 12 30 -24 14 -42 -20 -14 -25 -40 -31 -47 -10 -5 10 0 15 13 15
11 0 20 5 20 10 0 6 -9 10 -20 10 -11 0 -20 5 -20 10 0 18 -22 10 -27 -10 -3
-11 -10 -20 -17 -20 -6 0 -4 -5 4 -10 9 -6 11 -10 3 -10 -7 0 -10 -7 -6 -16 6
-15 7 -15 20 1 7 10 16 16 19 12 4 -3 -1 -13 -10 -22 -9 -9 -16 -21 -16 -26 0
-6 -4 -7 -10 -4 -14 9 -12 -19 2 -33 7 -7 10 -12 8 -13 -89 -19 -111 -26 -108
-33 2 -6 14 -11 27 -12 35 -4 36 -11 2 -19 -34 -7 -36 -12 -19 -50 9 -20 9
-31 0 -45 -13 -21 -6 -50 12 -50 6 0 0 -9 -14 -20 -23 -18 -23 -20 -5 -20 11
0 29 -3 40 -5 35 -9 46 6 34 49 -6 23 -7 42 -1 49 5 7 12 25 16 41 13 52 28
13 24 -63 -4 -88 -12 -83 162 -91 l45 -2 -35 -10 c-19 -5 -42 -9 -50 -9 -8 1
-46 0 -85 -1 -38 0 -80 -1 -92 0 -25 0 -31 -23 -9 -31 18 -7 9 -47 -10 -47 -8
0 -14 8 -14 19 0 10 -6 24 -14 30 -11 9 -15 5 -18 -24 -3 -25 0 -35 10 -35 10
0 10 -4 -3 -16 -9 -9 -14 -23 -11 -31 3 -8 6 -20 6 -27 0 -20 68 -39 114 -32
39 6 106 -8 94 -19 -2 -3 -19 -6 -36 -8 -18 -2 -39 -12 -47 -23 -13 -16 -16
-17 -25 -4 -5 8 -11 18 -12 21 -2 4 -20 4 -41 0 -41 -6 -45 -14 -90 -149 -13
-41 -78 -82 -122 -78 -49 4 -116 26 -110 36 16 26 -45 -5 -64 -33 -11 -16 -22
-19 -68 -15 -50 4 -59 9 -109 59 -30 30 -64 69 -75 87 -15 23 -28 32 -48 32
-35 0 -44 9 -28 28 10 13 9 14 -1 8 -9 -5 -21 0 -33 13 -11 12 -24 19 -30 16
-5 -4 -30 -3 -56 1 l-47 7 52 23 c29 13 53 26 53 31 5 30 6 53 1 53 -2 0 -20
-13 -39 -30 -38 -34 -57 -37 -80 -14 -11 11 -19 12 -26 5 -13 -13 -30 -15 -23
-2 3 5 -2 15 -11 22 -12 10 -14 10 -9 2 4 -8 1 -13 -8 -13 -9 0 -16 5 -16 10
0 6 -9 10 -20 10 -11 0 -20 5 -20 12 0 6 -3 8 -7 5 -3 -4 -11 -3 -17 2 -6 5
-29 12 -50 17 -34 6 -38 5 -33 -10 4 -9 2 -16 -3 -16 -6 0 -10 5 -10 10 0 14
-37 12 -47 -2 -4 -7 -14 -13 -20 -14 -7 -1 -25 -2 -39 -2 -14 -1 -22 -6 -19
-12 3 -5 -1 -10 -9 -10 -9 0 -16 -4 -16 -8 0 -4 -17 -9 -37 -10 -21 -2 -42 -7
-46 -11 -10 -10 45 -31 79 -31 13 0 24 -4 24 -10 0 -9 -15 -11 -112 -14 -44
-1 -56 -11 -41 -35 10 -16 8 -20 -12 -25 -14 -4 -30 -16 -36 -29 -19 -35 -110
-141 -128 -149 -9 -4 -31 -7 -50 -7 -20 -1 -39 -8 -46 -18 -12 -16 -15 -13
-28 20 -15 34 -47 52 -47 26 0 -5 -4 -7 -10 -4 -5 3 -10 2 -10 -3 0 -17 -101
-63 -115 -52 -6 5 -14 7 -18 4 -3 -3 -65 -8 -139 -11 -73 -2 -151 -5 -173 -6
-22 -1 -52 1 -67 5 -26 6 -28 4 -28 -25 l0 -31 -17 24 c-9 14 -17 26 -18 27 0
1 -14 -1 -31 -6 -16 -4 -44 -4 -62 1 -21 6 -38 6 -46 -1 -7 -6 -17 -6 -25 -1
-16 9 -76 2 -103 -12 -14 -6 -18 -5 -18 7 0 15 -17 15 -66 0 -6 -2 -23 3 -38
10 -15 8 -26 10 -26 4 0 -6 -4 -8 -9 -5 -5 4 -22 1 -37 -4 -19 -8 -30 -8 -38
0 -7 7 -6 10 5 11 15 1 -47 27 -68 28 -6 1 -14 -12 -18 -29 -9 -41 -20 -38
-34 10 -11 36 -15 40 -44 40 -22 0 -28 3 -18 9 16 10 -68 31 -124 31 -40 0
-47 15 -11 24 23 6 24 9 19 68 -8 113 -4 108 -81 108 -47 0 -63 3 -52 10 8 5
27 10 42 10 15 0 30 5 33 10 4 6 16 10 28 9 49 -4 52 -1 54 56 2 40 0 53 -10
49 -15 -5 -18 37 -4 47 17 12 -3 29 -33 29 -15 0 -36 3 -45 6 -14 6 -11 9 13
20 l31 13 -2 83 c-2 46 -7 89 -11 97 -6 9 -5 12 2 7 9 -6 22 -1 61 21 11 7
-23 31 -36 26 -12 -5 -14 -1 -8 16 9 31 -2 71 -21 71 -9 0 -12 -5 -8 -12 5
-10 4 -10 -5 -2 -16 15 6 55 26 47 7 -3 13 2 13 11 0 9 8 16 18 17 23 1 -76
28 -108 29 l-25 1 23 10 c13 5 28 7 32 4 5 -3 11 -1 15 5 3 5 14 10 23 10 15
0 17 12 17 89 l0 89 -34 -4 c-29 -4 -32 -2 -21 11 7 8 27 15 46 15 42 0 49 12
29 50 -9 17 -13 35 -10 39 3 5 -1 12 -7 15 -10 5 -10 7 0 12 10 5 10 9 1 20
-8 10 -9 18 0 27 15 19 4 27 -38 27 -20 0 -43 5 -51 10 -11 7 -4 11 28 16 25
4 39 11 35 17 -4 7 0 8 12 3 24 -9 55 2 55 20 0 8 -4 14 -10 14 -13 0 -13 71
0 106 8 21 8 29 -2 35 -16 10 -25 -24 -27 -103 0 -32 -5 -58 -9 -58 -5 0 -13
34 -18 77 -10 82 -9 82 -81 86 -52 4 -50 17 3 19 27 1 66 3 88 4 56 2 77 48
34 76 -21 14 -21 16 -5 55 18 47 21 44 -75 58 -56 8 -55 20 2 29 22 3 40 12
41 19 1 6 2 50 2 97 2 85 2 85 30 88 30 4 34 14 13 31 -20 17 -26 59 -10 72 8
6 14 18 14 27 0 8 10 23 22 33 11 11 19 19 17 20 -2 0 -28 6 -58 12 -63 14
-88 44 -27 34 l36 -6 -5 42 c-3 23 -2 35 1 27 4 -8 20 -28 35 -44 24 -24 31
-27 44 -16 8 7 12 16 9 21 -2 5 7 11 21 15 14 3 25 9 25 13 0 24 108 49 121
29 8 -11 11 -11 18 1 5 7 13 11 19 7 11 -7 23 33 24 84 1 17 6 29 12 27 15 -5
20 -47 6 -47 -8 0 3 -25 27 -59 1 -2 9 1 16 8 11 9 17 8 27 -4 9 -11 16 -12
26 -4 7 6 18 8 24 4 5 -3 10 -2 10 4 0 14 108 5 126 -10 21 -17 34 3 34 57 l0
40 -72 -3 c-50 -2 -69 0 -62 7 9 9 210 23 290 21 16 0 24 7 29 27 6 23 8 24
14 8 7 -18 69 -46 104 -46 10 0 15 -5 12 -10 -4 -6 -21 -10 -38 -10 -18 0 -76
0 -131 0 -54 0 -103 3 -108 6 -5 4 -8 -12 -6 -37 l3 -44 125 0 c69 -1 131 -4
138 -8 8 -6 12 -2 12 12 0 28 11 52 21 45 5 -3 9 -15 9 -28 0 -20 5 -23 48
-25 126 -4 205 -11 216 -19 6 -5 30 -10 54 -11 34 -1 50 -8 73 -31 l31 -30 43
25 c54 32 104 39 127 19 9 -9 21 -13 27 -10 5 4 15 -2 21 -13 13 -25 68 -41
137 -41 51 0 51 0 40 -24 -11 -22 -14 -23 -28 -10 -12 11 -28 13 -55 8 -63
-11 -63 -17 -1 -57 23 -15 26 -21 16 -33 -10 -12 -9 -13 5 -8 11 4 19 -1 24
-17 9 -22 9 -22 16 6 6 23 9 26 17 14 5 -7 9 -29 9 -46 0 -25 5 -34 23 -38 53
-13 582 -6 605 9 4 2 9 43 10 90 l3 86 -70 0 c-59 0 -72 3 -81 19 -13 25 -13
31 1 31 5 0 8 -4 5 -9 -3 -4 50 -6 117 -4 67 2 132 4 145 4 18 -1 22 5 23 32
0 17 4 41 8 52 8 18 10 16 27 -18 13 -27 23 -36 33 -31 43 16 113 21 126 8 9
-10 16 -11 20 -3 5 6 12 3 22 -10 16 -24 55 -28 72 -7 7 8 14 34 17 57 3 24 8
46 10 49 9 8 24 -25 24 -54 l0 -29 23 21 c17 17 26 19 35 10 8 -8 15 -8 25 1
8 6 23 8 32 4 12 -4 16 -3 12 4 -4 6 2 13 13 16 11 3 20 1 20 -4 0 -6 6 -7 17
-1 11 6 28 5 51 -5 19 -8 36 -13 38 -11 2 2 4 24 6 48 l3 44 -67 -2 c-71 -1
-101 13 -46 22 18 3 92 7 163 9 l130 2 4 45 4 45 10 -34 c6 -18 20 -37 31 -41z
m-394 -28 c0 -5 -20 -9 -45 -11 -25 -1 -45 2 -45 6 0 5 20 10 45 11 25 1 45
-2 45 -6z m-2740 -12 c0 -5 -6 -10 -14 -10 -8 0 -18 5 -21 10 -3 6 3 10 14 10
12 0 21 -4 21 -10z m105 0 c-3 -5 -12 -7 -20 -3 -21 7 -19 13 6 13 11 0 18 -4
14 -10z m2465 0 c0 -5 -7 -7 -15 -4 -8 4 -15 8 -15 10 0 2 7 4 15 4 8 0 15 -4
15 -10z m55 -10 c0 -7 -5 -15 -10 -17 -6 -2 -11 6 -11 17 0 11 5 19 11 17 5
-2 10 -10 10 -17z m1262 -62 c-3 -7 -5 -2 -5 12 0 14 2 19 5 13 2 -7 2 -19 0
-25z m-2242 -126 c-3 -3 -11 0 -18 7 -9 10 -8 11 6 5 10 -3 15 -9 12 -12z
m-2045 -236 c0 -2 -7 -6 -15 -10 -8 -3 -15 -1 -15 4 0 6 7 10 15 10 8 0 15 -2
15 -4z m47 -2 c-3 -3 -12 -4 -19 -1 -8 3 -5 6 6 6 11 1 17 -2 13 -5z m4249
-150 c-3 -8 -10 -14 -16 -14 -11 0 -13 52 -3 90 6 22 8 20 16 -18 5 -24 6 -50
3 -58z m157 -271 c-7 -2 -19 -2 -25 0 -7 3 -2 5 12 5 14 0 19 -2 13 -5z m-3
-348 c0 -14 -4 -25 -10 -25 -11 0 -14 33 -3 43 11 11 13 8 13 -18z m-293 -101
c-3 -3 -12 -4 -19 -1 -8 3 -5 6 6 6 11 1 17 -2 13 -5z m-27 -34 c0 -5 -5 -10
-11 -10 -5 0 -7 5 -4 10 3 6 8 10 11 10 2 0 4 -4 4 -10z m-730 -260 c0 -5 -5
-10 -11 -10 -5 0 -7 5 -4 10 3 6 8 10 11 10 2 0 4 -4 4 -10z m-3330 -54 c0 -3
-4 -8 -10 -11 -5 -3 -10 -1 -10 4 0 6 5 11 10 11 6 0 10 -2 10 -4z m3470 -65
c14 -1 20 -5 15 -10 -12 -10 -195 -22 -195 -12 0 14 49 26 100 25 30 -2 66 -3
80 -3z m-290 -355 c0 -3 -4 -8 -10 -11 -5 -3 -10 -1 -10 4 0 6 5 11 10 11 6 0
10 -2 10 -4z m-3330 -86 c0 -5 -10 -10 -22 -10 -19 0 -20 2 -8 10 19 13 30 13
30 0z m2373 1 c53 -2 17 -19 -40 -20 -32 -1 -82 -3 -110 -4 -29 -2 -53 1 -53
5 0 13 81 26 140 22 19 -2 48 -3 63 -3z m1359 -73 c-10 -22 -11 -21 -11 12 -1
26 2 31 11 22 8 -8 8 -17 0 -34z m-2689 -318 c10 0 15 -4 12 -10 -3 -5 2 -10
12 -10 16 -1 16 -2 -2 -12 -22 -14 -185 -12 -198 1 -10 10 70 24 83 16 6 -3
20 3 32 15 15 13 25 17 32 10 5 -5 18 -10 29 -10z m-653 -43 c0 -5 -7 -6 -16
-3 -9 3 -21 6 -27 6 -7 0 -6 4 3 10 8 5 11 10 7 10 -5 0 -5 5 -1 12 5 7 11 5
21 -7 7 -11 13 -23 13 -28z m330 19 c0 -2 -9 -6 -20 -9 -11 -3 -20 -1 -20 4 0
5 9 9 20 9 11 0 20 -2 20 -4z m115 -16 c3 -5 1 -10 -4 -10 -6 0 -11 5 -11 10
0 6 2 10 4 10 3 0 8 -4 11 -10z m307 -77 c-10 -26 -10 -24 -11 22 0 42 2 46
11 28 7 -15 7 -30 0 -50z m-612 47 c0 -5 -7 -10 -15 -10 -8 0 -15 5 -15 10 0
6 7 10 15 10 8 0 15 -4 15 -10z m237 -186 c-3 -3 -12 -4 -19 -1 -8 3 -5 6 6 6
11 1 17 -2 13 -5z"/>
<path d="M2899 3611 c-2 -14 2 -78 7 -104 5 -26 7 -27 20 -10 7 10 14 29 14
43 0 20 9 29 41 42 23 10 38 22 34 28 -7 11 -114 12 -116 1z"/>
<path d="M1339 3467 c-14 -13 -42 -16 -172 -16 -86 0 -168 -3 -182 -7 -15 -4
-32 -1 -41 7 -14 12 -16 11 -12 -6 4 -22 -12 -22 368 -17 213 3 228 3 313 -5
49 -4 56 -7 46 -19 -8 -10 -22 -13 -41 -9 -17 4 -35 2 -44 -6 -11 -9 -18 -9
-22 -2 -4 6 -38 12 -77 14 l-70 4 -3 -55 c-2 -30 -7 -59 -11 -63 -8 -8 -23 60
-22 102 1 20 -1 22 -14 11 -11 -9 -34 -11 -73 -7 -54 5 -176 -4 -186 -14 -3
-3 -6 -31 -7 -62 -2 -41 -6 -57 -16 -57 -9 0 -12 7 -7 25 3 14 3 44 0 68 l-7
42 -115 -3 c-64 -2 -125 -8 -137 -13 -16 -7 -10 -8 23 -4 47 6 47 5 -7 -33
-17 -13 -17 -13 0 -7 48 14 41 -30 -7 -51 -17 -7 -25 -13 -18 -14 6 0 12 -9
12 -20 0 -19 -1 -19 -20 -2 -18 15 -20 25 -15 72 5 40 3 51 -4 40 -6 -8 -11
-43 -11 -77 0 -81 6 -84 166 -85 104 0 128 3 144 17 18 16 18 16 13 -3 -6 -23
-28 -27 -206 -38 -99 -5 -107 -7 -88 -21 25 -17 27 -46 5 -67 -14 -15 -14 -16
0 -16 9 0 16 -7 16 -16 0 -10 -6 -14 -14 -11 -10 4 -13 1 -9 -9 3 -9 -2 -14
-17 -14 -11 0 -18 -4 -15 -10 3 -6 49 -10 101 -10 61 0 93 -4 89 -10 -3 -5 3
-10 14 -10 12 0 21 -4 21 -8 0 -5 -44 -8 -97 -8 l-98 1 -3 -82 -3 -82 38 -10
c21 -5 55 -13 76 -17 25 -4 37 -11 37 -23 0 -29 36 -52 65 -41 14 5 31 7 39 4
8 -3 17 -1 21 5 3 6 15 11 26 11 11 0 17 -4 14 -10 -8 -14 18 -13 50 2 42 19
29 25 -57 26 -105 1 -98 0 -98 12 0 6 13 10 30 10 35 0 49 22 51 77 1 37 2 37
11 -12 l9 -50 107 1 c59 0 126 4 149 8 l42 8 5 61 c3 34 4 78 3 97 -2 39 -8
37 108 39 60 0 138 -3 183 -8 7 0 10 -6 7 -12 -5 -7 -52 -9 -141 -6 l-134 5
-1 -52 c-1 -28 -3 -70 -3 -93 l-2 -42 45 -10 c35 -7 51 -6 73 5 15 8 28 11 28
6 0 -5 10 -14 23 -20 17 -8 18 -11 5 -11 -10 -1 -18 -8 -18 -16 0 -8 -5 -15
-11 -15 -6 0 -8 9 -4 20 4 14 2 20 -8 20 -9 0 -17 -4 -19 -9 -5 -13 -184 -21
-196 -9 -8 8 -20 7 -41 -1 -16 -7 -39 -10 -52 -6 -14 5 -24 2 -30 -6 -4 -8
-14 -14 -21 -14 -7 0 -13 -6 -13 -12 0 -15 1 -15 33 -7 12 4 22 10 22 14 0 12
43 -1 56 -16 10 -12 17 -12 47 1 34 14 39 14 69 -5 39 -24 73 -27 65 -6 -8 21
92 -33 120 -64 13 -14 26 -36 30 -50 3 -14 13 -31 22 -37 14 -11 14 -13 -5
-19 -14 -4 -20 -12 -17 -23 2 -9 -5 -28 -17 -42 l-21 -24 4 28 c3 22 2 25 -9
16 -8 -6 -14 -17 -14 -24 0 -16 -38 -26 -66 -19 -12 3 -28 -1 -37 -10 -20 -20
-33 -20 -41 -1 -5 14 -33 11 -46 -5 -3 -3 -17 -13 -32 -23 -21 -13 -33 -15
-53 -7 -34 13 -35 13 -35 -5 0 -8 -4 -15 -9 -15 -5 0 -8 8 -7 17 0 10 -7 19
-16 21 -12 2 -18 -3 -18 -13 0 -13 -7 -15 -32 -11 -18 3 -38 12 -44 20 -15 21
-24 20 -24 -1 0 -15 -2 -15 -14 3 -13 18 -24 20 -78 19 -35 -2 -67 -4 -73 -5
-5 -1 -14 -1 -20 0 -21 5 -145 5 -145 0 0 -3 -3 -61 -6 -130 -4 -69 -11 -131
-17 -138 -7 -9 -7 -16 1 -24 7 -7 12 -30 11 -53 0 -30 -2 -35 -9 -20 -6 17 -8
14 -11 -15 -5 -49 1 -111 11 -105 5 3 9 -46 9 -109 1 -63 4 -121 7 -129 5 -15
131 -50 146 -40 5 2 8 13 8 23 0 22 32 30 70 18 14 -5 111 -6 215 -3 105 3
225 5 267 5 42 -1 79 3 82 9 8 13 56 -11 56 -28 0 -11 3 -11 15 -1 15 12 55 5
55 -10 0 -5 -7 -7 -15 -4 -8 3 -20 2 -27 -2 -18 -12 42 -23 64 -12 10 5 19 4
23 -2 4 -6 11 -8 16 -5 5 4 9 1 9 -6 0 -10 3 -10 12 -1 7 7 21 12 33 13 14 0
16 2 5 6 -8 4 -20 12 -27 19 -17 17 4 24 70 24 57 0 90 13 63 23 -17 7 -23 57
-7 57 5 0 13 9 16 20 8 26 25 16 25 -15 0 -13 5 -27 10 -30 14 -8 9 107 -5
117 -8 6 -32 5 -105 -5 -29 -4 -79 19 -89 40 -7 15 -7 22 -1 18 11 -6 148 -19
209 -18 27 0 41 7 62 32 27 33 27 33 32 10 3 -19 5 -17 6 8 0 18 12 49 26 69
14 20 25 43 25 50 0 8 7 14 15 14 8 0 15 5 15 10 0 6 -23 10 -52 10 -65 0 -53
20 16 27 26 3 49 10 52 14 3 5 -2 6 -10 3 -11 -4 -16 0 -16 11 0 9 -4 14 -9
11 -15 -9 -30 18 -28 49 3 34 20 37 25 5 2 -11 7 -18 12 -15 5 3 6 13 3 22 -4
11 -3 14 5 9 11 -7 16 5 13 31 -2 17 20 28 29 14 5 -9 10 -8 20 4 10 12 10 15
-4 15 -9 0 -16 4 -16 8 0 10 -233 24 -255 15 -8 -3 -15 -11 -15 -19 0 -8 -6
-14 -14 -14 -16 0 -41 28 -33 37 9 9 93 22 145 22 23 1 42 6 42 12 0 5 5 7 11
3 22 -13 27 19 8 55 -10 19 -16 44 -13 56 3 13 -1 29 -10 38 -14 13 -12 15 22
20 45 5 45 5 43 -30 -4 -86 -3 -148 3 -150 18 -8 96 -2 96 7 0 6 -16 10 -35
10 -38 0 -44 12 -19 38 15 15 16 14 10 -6 -9 -26 2 -29 19 -5 11 15 15 15 29
4 13 -11 17 -11 22 3 3 9 15 16 25 16 16 0 17 -4 8 -26 -13 -35 -7 -39 21 -14
17 15 21 23 13 31 -6 6 -9 17 -7 24 3 7 1 16 -5 20 -18 10 -12 32 9 38 11 3
20 10 20 15 0 7 -31 10 -80 8 -64 -1 -84 2 -102 16 l-23 19 38 -7 c30 -5 41
-3 52 12 12 15 16 16 23 6 12 -18 112 -5 112 14 0 9 -11 14 -27 14 -16 0 -33
4 -39 8 -13 9 -26 54 -13 46 5 -3 9 -1 9 5 0 5 -5 13 -11 16 -6 4 -8 23 -4 49
l5 41 -15 -40 c-8 -22 -15 -53 -15 -70 0 -44 -11 -55 -48 -50 -19 2 -30 0 -27
-5 4 -6 -1 -10 -9 -10 -10 0 -14 10 -14 30 1 17 5 30 10 30 5 0 7 -4 3 -9 -7
-13 12 -24 26 -16 7 5 4 14 -8 28 -17 20 -16 20 8 -1 l26 -22 -1 35 c-1 35
-10 46 -19 23 -4 -10 -6 -10 -6 0 -1 7 6 20 15 29 32 33 -5 41 -196 41 -30 1
-73 1 -95 1 -22 0 -52 -5 -67 -10 -15 -6 -32 -8 -39 -3 -21 12 26 24 120 29
47 3 96 8 109 10 12 3 22 2 22 -2 0 -5 37 -5 83 -1 45 3 90 7 100 7 34 2 6 21
-30 21 -29 0 -34 3 -29 17 4 9 1 20 -5 24 -16 10 -2 29 22 29 10 0 19 5 19 10
0 6 -7 10 -15 10 -8 0 -15 9 -15 19 0 23 -16 36 -25 22 -3 -6 -13 -7 -23 -4
-14 6 -15 4 -5 -9 12 -14 8 -28 -8 -28 -11 0 -17 36 -8 52 5 9 1 18 -11 25
-16 11 -19 8 -26 -25 -4 -20 -6 -48 -5 -62 1 -24 1 -24 -11 -5 -7 11 -12 36
-13 55 l0 35 -123 -3 c-74 -2 -122 1 -122 7 0 13 55 24 80 16 16 -5 20 -2 20
19 0 32 17 34 22 4 3 -20 9 -23 43 -21 22 0 64 2 94 3 29 1 63 5 75 10 l21 9
-21 0 c-24 1 -96 30 -76 31 7 0 11 4 7 10 -3 5 -13 6 -21 3 -10 -4 -15 -1 -14
8 6 38 -1 69 -15 69 -8 0 -15 5 -15 10 0 6 7 10 15 10 8 0 15 4 15 9 0 5 -9 7
-20 4 -11 -3 -20 0 -20 6 0 6 -13 11 -29 11 -27 0 -29 -3 -38 -57 l-10 -58 -7
50 c-10 61 35 55 -386 50 -80 -1 -157 -5 -172 -10 -25 -6 -28 -4 -28 15 0 18
4 21 25 18 13 -3 26 -1 27 4 2 4 17 8 33 9 182 0 234 1 255 4 14 1 30 3 36 4
17 2 25 46 14 75 -6 17 -6 26 0 26 5 0 12 -12 16 -27 3 -16 8 -36 11 -45 2
-11 -1 -18 -9 -18 -7 0 1 -7 17 -16 24 -12 48 -14 120 -9 50 3 102 8 118 11
41 8 32 24 -10 17 -30 -5 -35 -4 -30 10 3 9 1 17 -4 19 -15 5 5 74 20 70 20
-4 12 20 -9 25 -11 3 -20 11 -20 18 0 17 -54 26 -111 19 -26 -3 -55 -2 -65 4
-15 9 -12 12 25 22 24 6 57 12 73 12 20 1 25 4 16 9 -7 5 -46 7 -86 4 -53 -4
-71 -2 -66 6 5 8 1 8 -14 0 -17 -9 -21 -7 -27 12 -6 20 -8 20 -12 4 -4 -15
-11 -18 -38 -13 -23 5 -35 2 -37 -6 -3 -9 -9 -10 -19 -3 -8 6 -55 10 -106 10
-72 0 -93 3 -95 14 -3 12 -6 12 -19 -2z m557 -125 c-10 -11 -16 -12 -16 -4 0
7 5 12 10 12 6 0 10 8 11 18 0 11 2 13 6 4 3 -8 -2 -21 -11 -30z m-496 -86 c0
-3 -4 -8 -10 -11 -5 -3 -10 -1 -10 4 0 6 5 11 10 11 6 0 10 -2 10 -4z m-256
-65 c11 -4 15 -10 9 -14 -5 -3 -19 0 -29 8 -20 15 -11 18 20 6z m135 -86 c-1
-47 -5 -85 -10 -85 -10 0 -12 19 -9 93 1 37 -3 52 -17 63 -17 12 -16 13 9 14
l27 0 0 -85z m26 -105 c3 -5 17 -10 30 -10 13 0 27 -4 30 -10 4 -6 -46 -10
-132 -12 l-138 -3 -3 -30 c-6 -49 -22 -54 -22 -7 0 37 -3 42 -22 43 -22 0 -22
1 2 11 14 5 69 11 122 12 53 1 100 5 104 9 10 10 22 9 29 -3z m433 -42 c-2 -6
-10 -14 -16 -16 -7 -2 -10 2 -6 12 7 18 28 22 22 4z m403 -108 c5 0 9 -4 9
-10 0 -17 -14 -11 -28 10 -7 12 -9 26 -5 33 5 8 9 5 11 -10 2 -13 8 -23 13
-23z m-91 -15 c0 -8 -4 -15 -10 -15 -5 0 -10 7 -10 15 0 8 5 15 10 15 6 0 10
-7 10 -15z m97 -21 c-3 -3 -12 -4 -19 -1 -8 3 -5 6 6 6 11 1 17 -2 13 -5z
m-441 -34 c8 0 14 -5 14 -11 0 -15 -53 -6 -58 10 -3 10 0 12 12 8 10 -4 24 -7
32 -7z m-59 -16 c-3 -3 -12 -4 -19 -1 -8 3 -5 6 6 6 11 1 17 -2 13 -5z m-202
-54 c-3 -5 -10 -10 -16 -10 -5 0 -9 5 -9 10 0 6 7 10 16 10 8 0 12 -4 9 -10z
m558 -170 c9 0 17 -4 17 -9 0 -5 -15 -5 -36 -1 -20 5 -44 6 -53 3 -14 -4 -14
-3 -1 6 8 6 24 9 35 6 11 -2 28 -5 38 -5z m-238 -70 c0 -51 -2 -58 -12 -43 -7
9 -13 34 -13 54 0 21 6 40 13 42 6 3 12 6 12 6 1 1 1 -26 0 -59z m300 -60 c-3
-5 -12 -7 -20 -3 -21 7 -19 13 6 13 11 0 18 -4 14 -10z m-625 -35 c0 -14 44
-22 75 -15 29 7 221 -2 231 -11 8 -6 14 -6 18 0 9 14 41 6 41 -10 0 -12 -41
-14 -235 -16 -129 -1 -247 -4 -262 -7 -20 -4 -30 -1 -37 13 -11 20 -15 18 74
24 78 5 75 5 69 22 -4 9 0 15 10 15 9 0 16 -7 16 -15z m-194 -27 c8 -8 8 -77
0 -85 -11 -11 -26 19 -20 39 4 14 0 16 -31 11 -26 -4 -41 -1 -55 12 -11 10
-20 21 -20 24 0 7 119 6 126 -1z m-176 -8 c13 -9 13 -11 0 -20 -12 -8 -13 -12
-2 -19 11 -7 10 -9 -3 -14 -9 -4 -13 -3 -10 2 8 14 -7 20 -61 25 -27 3 -54 0
-61 -6 -10 -8 -13 -6 -13 10 0 21 5 23 100 29 19 2 42 -2 50 -7z m242 -216
c107 -9 69 -24 -60 -24 -103 0 -114 2 -96 14 21 16 53 18 156 10z m295 -10
c-3 -3 -12 -4 -19 -1 -8 3 -5 6 6 6 11 1 17 -2 13 -5z m143 -14 c0 -11 -7 -20
-15 -20 -27 0 -18 30 13 39 1 1 2 -8 2 -19z m95 10 c5 -7 -7 -9 -35 -6 -57 7
-63 16 -12 16 22 0 44 -5 47 -10z m159 -123 c4 4 4 0 0 -10 -8 -22 -11 -22
-25 6 -11 19 -10 20 3 10 8 -7 18 -10 22 -6z m-911 -42 c4 -8 2 -17 -3 -20 -6
-4 -10 3 -10 14 0 25 6 27 13 6z m267 -45 c0 -11 -26 -19 -72 -20 -21 0 -44
-1 -50 -2 -7 0 -58 3 -113 7 -55 5 -108 8 -117 9 -10 0 -18 4 -18 8 0 10 91
14 243 10 70 -2 127 -7 127 -12z m195 -4 c6 -6 14 -21 17 -34 5 -18 3 -22 -10
-20 -9 2 -16 11 -14 20 3 19 -31 28 -99 27 -53 -2 -84 10 -55 21 27 9 149 -1
161 -14z m135 4 c0 -12 -64 -12 -100 0 -19 6 -9 8 38 9 35 1 62 -3 62 -9z
m-287 -55 c-3 -9 -8 -14 -10 -11 -3 3 -2 9 2 15 9 16 15 13 8 -4z m173 -103
c-11 -10 -15 4 -8 28 l7 25 3 -23 c2 -13 1 -26 -2 -30z m94 -4 c0 -15 -15 -8
-28 12 -12 19 -11 20 8 8 11 -7 20 -16 20 -20z m-325 0 c3 -3 -3 -8 -15 -11
-11 -3 -20 0 -20 6 0 9 -3 9 -8 0 -4 -7 -34 -15 -66 -19 -57 -7 -58 -6 -47 14
10 18 19 20 81 18 38 -1 72 -5 75 -8z"/>
<path d="M3925 3468 c-6 -15 -20 -18 -71 -18 -37 0 -64 -4 -64 -10 0 -7 39 -8
112 -4 112 6 159 14 80 14 -30 0 -42 4 -45 18 -4 16 -4 16 -12 0z"/>
<path d="M840 3450 c-24 -8 -23 -8 8 -9 17 -1 32 4 32 9 0 11 -5 11 -40 0z"/>
<path d="M3733 3453 c-47 -6 -41 -19 7 -15 22 2 40 8 40 13 0 5 -3 8 -7 7 -5
0 -23 -3 -40 -5z"/>
<path d="M3675 3440 c3 -5 8 -10 11 -10 2 0 4 5 4 10 0 6 -5 10 -11 10 -5 0
-7 -4 -4 -10z"/>
<path d="M2539 3405 c-2 -2 -35 -5 -74 -7 l-70 -5 1 -65 c1 -79 9 -105 27 -89
10 7 24 5 53 -9 33 -16 52 -17 124 -12 l85 7 6 35 c4 19 7 27 8 18 0 -10 8
-18 16 -18 8 0 15 -7 15 -15 0 -8 9 -15 20 -15 13 0 20 7 20 20 0 11 -4 20
-10 20 -5 0 -10 9 -10 20 0 22 16 27 22 8 2 -6 10 -8 16 -4 9 5 9 13 2 26 -13
25 -13 28 8 33 9 2 26 -3 37 -12 14 -11 16 -11 8 -1 -19 21 -16 28 15 32 l27
3 -33 18 c-41 23 -136 20 -138 -3 -1 -8 -3 -31 -4 -50 l-2 -35 -9 30 c-5 17
-7 39 -5 50 5 19 -1 20 -73 22 -43 1 -80 0 -82 -2z"/>
<path d="M443 3328 c-8 -61 -7 -75 6 -86 22 -18 34 0 24 39 -5 19 -6 50 -2 69
4 19 5 38 3 42 -13 21 -23 1 -31 -64z"/>
<path d="M2265 3383 c-5 -12 -9 -14 -12 -5 -6 14 -23 16 -23 2 0 -5 11 -12 25
-16 14 -3 25 -9 25 -13 0 -3 4 -12 9 -20 8 -13 12 -13 27 0 16 13 16 12 5 -9
-13 -25 -7 -42 15 -42 16 0 18 -12 4 -26 -6 -6 -3 -10 10 -10 18 0 20 7 20 59
0 79 -11 97 -59 97 -28 0 -41 -5 -46 -17z"/>
<path d="M3805 3390 c-71 -4 -131 -8 -132 -9 -10 -5 0 -21 12 -21 8 0 15 -5
15 -11 0 -6 7 -9 15 -5 19 7 19 -4 -1 -32 -8 -12 -11 -22 -6 -22 6 0 13 7 16
16 4 9 9 15 12 12 9 -9 -17 -55 -32 -55 -8 0 -14 5 -14 10 0 6 -8 3 -18 -6
-28 -25 -31 -22 -29 33 0 27 -2 53 -6 56 -7 7 -11 -24 -8 -57 1 -9 -10 -27
-23 -40 -14 -13 -26 -27 -26 -31 0 -12 45 -9 57 3 9 9 21 7 50 -7 30 -15 59
-19 138 -18 55 1 117 6 138 12 20 6 37 7 37 4 0 -12 254 -1 262 12 4 6 5 25 3
41 -2 17 -4 36 -4 43 -1 6 -7 12 -15 12 -8 0 -17 6 -20 13 -5 10 -7 10 -12 0
-3 -7 -13 -13 -22 -13 -8 0 -13 3 -9 6 3 4 -9 17 -27 29 -24 16 -52 24 -100
27 l-66 4 -2 -31 c-1 -16 -1 -39 -1 -50 0 -11 -6 -25 -12 -32 -11 -10 -14 -3
-19 35 -3 26 -6 55 -6 65 -1 9 -4 16 -8 15 -4 -1 -65 -5 -137 -8z m305 -31 c0
-4 -7 -6 -15 -3 -8 4 -15 10 -15 15 0 4 7 6 15 3 8 -4 15 -10 15 -15z m-330
-25 c0 -8 -5 -12 -10 -9 -6 4 -8 11 -5 16 9 14 15 11 15 -7z m-5 -54 c-3 -5
-14 -10 -23 -10 -15 0 -15 2 -2 10 20 13 33 13 25 0z m52 -12 c-3 -8 -6 -5 -6
6 -1 11 2 17 5 13 3 -3 4 -12 1 -19z m410 7 c9 -24 -1 -27 -15 -5 -8 13 -8 20
-2 20 6 0 13 -7 17 -15z m-257 -25 c0 -5 -5 -10 -11 -10 -5 0 -7 5 -4 10 3 6
8 10 11 10 2 0 4 -4 4 -10z"/>
<path d="M3615 3380 c3 -5 10 -10 16 -10 5 0 9 5 9 10 0 6 -7 10 -16 10 -8 0
-12 -4 -9 -10z"/>
<path d="M3196 3334 c-4 -9 -4 -19 -2 -21 8 -8 26 8 26 23 0 19 -16 18 -24 -2z"/>
<path d="M825 3310 c-3 -5 -1 -10 4 -10 6 0 11 5 11 10 0 6 -2 10 -4 10 -3 0
-8 -4 -11 -10z"/>
<path d="M3676 3307 c3 -10 9 -15 12 -12 3 3 0 11 -7 18 -10 9 -11 8 -5 -6z"/>
<path d="M3182 3279 c2 -6 8 -10 13 -10 5 0 11 4 13 10 2 6 -4 11 -13 11 -9 0
-15 -5 -13 -11z"/>
<path d="M3656 3175 c4 -8 1 -15 -5 -15 -6 0 -11 5 -11 10 0 6 -7 10 -16 10
-8 0 -12 -4 -9 -10 3 -5 -2 -9 -12 -7 -10 1 -20 -2 -23 -8 -3 -6 12 -11 33
-13 20 -2 35 -8 32 -13 -4 -5 -11 -7 -16 -4 -5 4 -9 -1 -9 -9 0 -22 9 -20 39
7 14 12 20 15 13 6 -10 -14 -10 -20 3 -33 15 -15 15 -16 -5 -16 -16 0 -20 -4
-16 -15 3 -8 1 -15 -5 -15 -6 0 -8 -7 -5 -16 5 -12 2 -15 -12 -12 -10 3 -27
-1 -38 -9 -17 -12 -2 -14 116 -12 l135 3 -4 80 c-2 60 -8 84 -20 93 -19 15
-63 17 -77 3 -6 -6 -22 -6 -44 0 -46 13 -50 13 -44 -5z"/>
<path d="M3868 3158 c-7 -145 -7 -148 21 -149 136 -5 444 -2 448 5 3 4 -8 5
-25 1 -18 -3 -33 -2 -37 4 -3 6 0 11 8 11 14 0 27 20 27 41 0 13 -47 11 -56
-2 -11 -18 -24 12 -24 57 l0 42 -170 -2 c-130 -1 -170 2 -170 12 0 28 -20 9
-22 -20z m308 -35 c-10 -10 -19 5 -10 18 6 11 8 11 12 0 2 -7 1 -15 -2 -18z
m30 -69 c-4 -9 -9 -15 -11 -12 -3 3 -3 13 1 22 4 9 9 15 11 12 3 -3 3 -13 -1
-22z m-36 6 c0 -5 -2 -10 -4 -10 -3 0 -8 5 -11 10 -3 6 -1 10 4 10 6 0 11 -4
11 -10z m-63 -22 c-3 -8 -6 -5 -6 6 -1 11 2 17 5 13 3 -3 4 -12 1 -19z"/>
<path d="M2425 3173 c11 -2 27 -7 35 -10 8 -3 21 -5 29 -4 9 2 12 -3 8 -13 -7
-19 4 -21 21 -4 7 7 12 10 13 8 8 -54 2 -87 -20 -109 l-25 -24 25 8 c37 11 61
36 49 50 -6 7 -10 17 -8 21 1 5 -1 23 -4 40 -8 36 -28 44 -98 43 -25 -1 -36
-3 -25 -6z"/>
<path d="M2605 3148 c-19 -38 -31 -123 -19 -130 5 -3 18 -2 29 3 19 7 19 8 -2
8 -28 1 -29 12 -3 36 13 12 20 29 18 44 -2 21 1 25 15 23 11 -2 26 3 35 11 10
9 28 17 42 20 15 2 6 5 -22 6 -25 0 -53 4 -61 7 -10 3 -21 -6 -32 -28z"/>
<path d="M3110 3169 c-18 -5 -20 -7 -6 -8 12 -1 16 -6 12 -17 -4 -11 -2 -15 8
-11 10 4 15 -5 18 -31 3 -20 8 -45 12 -54 12 -27 -68 -25 -91 2 -10 11 -27 20
-39 20 -19 0 -22 -5 -21 -32 l2 -33 76 -2 c92 -2 108 5 91 42 -7 14 -12 48
-12 74 0 53 -9 62 -50 50z"/>
<path d="M4285 3160 c27 -12 35 -12 35 0 0 6 -12 10 -27 9 -25 0 -26 -1 -8 -9z"/>
<path d="M2480 3109 c0 -5 5 -7 10 -4 6 3 10 8 10 11 0 2 -4 4 -10 4 -5 0 -10
-5 -10 -11z"/>
<path d="M3600 3055 c0 -8 4 -15 9 -15 5 0 14 7 21 15 10 13 9 15 -9 15 -12 0
-21 -6 -21 -15z"/>
<path d="M3190 3021 c0 -16 46 -24 67 -12 16 9 15 10 -9 11 -14 0 -33 3 -42 6
-9 3 -16 1 -16 -5z"/>
<path d="M3023 2947 c-1 -17 -3 -56 -5 -84 -3 -59 -18 -73 -18 -18 0 44 -18
46 -22 4 -3 -34 -33 -62 -46 -44 -4 6 -20 12 -37 13 -27 2 -28 1 -13 -14 13
-13 44 -16 183 -18 125 -1 169 2 177 12 8 9 8 16 1 23 -8 8 -13 7 -17 0 -4 -6
-19 -11 -33 -11 -18 0 -24 4 -19 15 3 8 1 15 -3 15 -5 0 -12 -7 -15 -15 -5
-13 -10 -14 -28 -4 -13 7 -24 12 -25 11 -2 -1 -16 1 -31 4 -24 5 -28 11 -30
43 -4 55 45 100 75 70 7 -7 13 -7 17 0 4 5 13 8 20 5 8 -3 17 -1 20 4 4 6 -18
10 -53 10 -32 0 -67 3 -77 6 -16 5 -19 0 -21 -27z"/>
<path d="M4007 2916 c-9 -91 1 -120 44 -126 19 -3 49 0 69 8 24 10 35 11 38 3
5 -14 39 -14 47 -1 3 6 -3 10 -13 10 -30 0 -43 22 -33 56 4 16 4 40 0 54 l-9
25 19 -22 c18 -22 61 -32 61 -15 0 4 14 13 30 19 17 6 30 18 30 26 0 13 -21
15 -130 16 -72 0 -134 2 -139 5 -4 3 -11 -23 -14 -58z m196 10 c4 -10 1 -13
-9 -9 -7 3 -14 9 -14 14 0 14 17 10 23 -5z"/>
<path d="M3685 2960 c-10 -16 -14 -135 -5 -149 6 -11 39 -14 143 -15 74 -1
138 2 142 6 10 10 12 145 2 155 -12 11 -275 14 -282 3z"/>
<path d="M2971 2944 c0 -11 3 -14 6 -6 3 7 2 16 -1 19 -3 4 -6 -2 -5 -13z"/>
<path d="M3625 2950 c-3 -5 -4 -14 0 -19 3 -5 1 -12 -4 -16 -7 -4 -7 -15 0
-32 13 -36 4 -70 -21 -78 -26 -8 -16 -25 15 -25 19 0 24 6 29 38 3 20 5 61 4
90 -1 49 -9 64 -23 42z"/>
<path d="M3107 2923 c-4 -3 5 -12 19 -20 36 -18 40 -16 19 7 -19 21 -28 24
-38 13z"/>
<path d="M3057 2903 c11 -30 26 -40 50 -35 30 6 29 20 -2 28 -14 3 -25 10 -25
15 0 5 -7 9 -15 9 -10 0 -12 -6 -8 -17z"/>
<path d="M3180 2898 c0 -4 14 -8 32 -8 17 0 28 3 25 7 -10 9 -57 10 -57 1z"/>
<path d="M4205 2860 c-3 -5 1 -10 9 -10 9 0 16 5 16 10 0 6 -4 10 -9 10 -6 0
-13 -4 -16 -10z"/>
<path d="M3140 2754 c0 -5 -48 -9 -108 -8 -66 0 -117 -4 -132 -12 -24 -11 -26
-18 -28 -92 l-2 -80 175 0 c188 0 228 5 233 30 2 12 -2 15 -17 11 -11 -3 -30
2 -43 11 -12 9 -30 16 -40 16 -21 0 -23 11 -6 28 7 7 8 12 4 12 -5 0 2 9 15
20 29 23 19 26 -21 5 -27 -14 -30 -14 -30 0 0 8 -5 15 -11 15 -5 0 -8 -4 -5
-9 3 -5 -2 -12 -11 -15 -19 -8 -38 15 -21 25 6 4 7 12 3 20 -6 9 -3 10 11 4
10 -4 27 -7 37 -7 9 1 31 2 47 3 32 2 43 19 13 19 -10 0 -28 3 -40 6 -13 4
-23 2 -23 -2z m-169 -37 c-6 -8 -8 -17 -5 -20 9 -8 -39 -2 -54 7 -21 13 -3 26
35 26 28 0 33 -3 24 -13z m57 -5 c2 -7 -3 -12 -11 -12 -10 0 -13 -7 -10 -20 3
-11 0 -20 -6 -20 -6 0 -11 5 -11 11 0 5 -4 7 -10 4 -5 -3 -2 8 8 24 17 31 32
35 40 13z m52 13 c0 -7 -30 -13 -34 -7 -3 4 4 9 15 9 10 1 19 0 19 -2z m14
-61 c24 -9 19 -19 -9 -19 -25 0 -31 6 -18 18 8 8 8 8 27 1z m-43 -57 c-10 -9
-11 -8 -5 6 3 10 9 15 12 12 3 -3 0 -11 -7 -18z m92 -4 c-7 -2 -19 -2 -25 0
-7 3 -2 5 12 5 14 0 19 -2 13 -5z"/>
<path d="M3882 2749 c-19 -7 -21 -12 -12 -29 12 -22 15 -23 45 -10 11 5 15 9
8 9 -7 1 -10 7 -7 15 7 19 -7 25 -34 15z"/>
<path d="M858 2741 c-11 -4 -14 -11 -9 -19 5 -8 15 -10 30 -4 18 6 20 10 9 19
-7 6 -21 8 -30 4z"/>
<path d="M3796 2734 c-9 -23 -2 -28 13 -10 7 8 8 17 3 20 -6 3 -13 -1 -16 -10z"/>
<path d="M3690 2726 c0 -9 7 -12 20 -9 11 3 20 9 20 14 0 5 -9 9 -20 9 -11 0
-20 -6 -20 -14z"/>
<path d="M3760 2709 c0 -5 5 -7 10 -4 6 3 10 8 10 11 0 2 -4 4 -10 4 -5 0 -10
-5 -10 -11z"/>
<path d="M3975 2710 c3 -5 11 -10 16 -10 6 0 7 5 4 10 -3 6 -11 10 -16 10 -6
0 -7 -4 -4 -10z"/>
<path d="M790 2700 c0 -5 5 -10 11 -10 5 0 7 5 4 10 -3 6 -8 10 -11 10 -2 0
-4 -4 -4 -10z"/>
<path d="M2813 2661 c0 -26 -3 -53 -7 -59 -4 -7 -4 -12 1 -13 4 0 -1 -5 -12
-10 -18 -8 -18 -8 5 -6 24 2 25 5 26 65 0 35 -2 65 -6 67 -3 2 -6 -18 -7 -44z"/>
<path d="M3220 2686 c0 -9 -4 -16 -8 -16 -5 0 -9 -6 -9 -14 0 -8 8 -11 19 -8
19 5 25 37 8 47 -5 3 -10 -1 -10 -9z"/>
<path d="M2970 2530 c-14 -4 -45 -8 -69 -9 l-44 -1 23 -20 c27 -24 42 -26 34
-5 -8 19 6 19 34 -1 l23 -16 -27 -23 c-19 -16 -23 -24 -13 -28 20 -8 -40 -57
-71 -58 -25 0 -25 0 -3 -11 13 -6 47 -8 86 -4 l65 7 4 47 c4 61 -1 132 -10
131 -4 -1 -18 -5 -32 -9z"/>
<path d="M3053 2523 c-7 -2 -13 -9 -13 -14 0 -5 9 -4 20 3 10 7 22 9 25 6 12
-12 -5 -46 -25 -51 -14 -4 -18 -12 -16 -33 1 -16 -1 -39 -5 -51 -11 -30 3 -37
86 -39 91 -3 160 13 144 32 -6 8 -18 14 -25 14 -8 0 -14 4 -14 10 0 5 -6 7
-14 4 -21 -8 -39 31 -26 56 13 24 26 26 34 5 3 -9 0 -15 -9 -15 -8 0 -15 -7
-15 -15 0 -18 9 -19 33 -1 16 12 16 17 5 35 -7 12 -16 21 -20 21 -5 0 -8 5 -8
11 0 7 11 8 30 4 17 -4 30 -2 30 3 0 5 -14 12 -31 16 -37 7 -168 7 -186 -1z
m81 -45 c-4 -6 1 -17 11 -25 20 -14 16 -17 -9 -7 -9 3 -16 12 -16 20 0 7 -6
11 -14 8 -11 -4 -13 0 -9 15 4 17 9 19 24 10 11 -5 16 -15 13 -21z m61 22 c9
-15 -14 -40 -30 -34 -11 5 -12 10 -2 25 13 21 23 24 32 9z m-25 -84 c0 -3 -4
-8 -10 -11 -5 -3 -10 -1 -10 4 0 6 5 11 10 11 6 0 10 -2 10 -4z m10 -26 c0 -5
-5 -10 -11 -10 -5 0 -7 5 -4 10 3 6 8 10 11 10 2 0 4 -4 4 -10z"/>
<path d="M463 2432 c1 -40 6 -72 11 -72 9 0 1 128 -8 138 -3 3 -5 -27 -3 -66z"/>
<path d="M3944 2424 c-11 -10 -28 -26 -38 -33 -16 -13 -17 -13 -14 4 1 10 -3
20 -11 23 -9 3 -12 0 -9 -10 4 -9 -4 -18 -23 -25 -26 -10 -29 -9 -29 8 0 25
-21 24 -44 -2 -15 -18 -20 -19 -27 -8 -5 8 -9 11 -9 7 0 -4 -11 -3 -25 2 -26
10 -31 4 -16 -19 10 -16 135 -25 219 -15 62 7 101 36 82 60 -7 7 -16 12 -20 9
-5 -3 -10 0 -12 7 -3 8 -11 5 -24 -8z"/>
<path d="M3617 2396 l-26 -34 40 -4 c40 -4 41 -4 35 26 -10 47 -21 50 -49 12z"/>
<path d="M1280 2410 c0 -5 7 -10 15 -10 8 0 15 5 15 10 0 6 -7 10 -15 10 -8 0
-15 -4 -15 -10z"/>
<path d="M2867 2403 c-4 -3 -7 -11 -7 -17 0 -6 5 -5 12 2 6 6 9 14 7 17 -3 3
-9 2 -12 -2z"/>
<path d="M3097 2303 c-13 -13 -19 -14 -29 -5 -7 7 -21 12 -32 12 -27 0 -53
-17 -43 -27 5 -4 12 -1 17 7 6 10 13 0 24 -36 13 -42 16 -46 22 -26 3 12 14
22 24 22 9 0 25 9 35 20 23 25 37 16 23 -15 -6 -13 -15 -22 -21 -18 -6 4 -7 1
-2 -7 4 -7 2 -16 -6 -21 -10 -6 -11 -9 -1 -9 6 0 12 -9 12 -20 0 -26 -47 -46
-72 -31 -12 7 -19 7 -23 0 -4 -5 -16 -9 -27 -7 -12 2 -23 -3 -25 -9 -3 -9 11
-13 49 -15 82 -2 101 -4 124 -11 14 -5 26 -2 33 7 8 10 23 13 39 10 15 -3 38
-1 52 4 24 10 23 11 -17 17 -30 5 -43 13 -43 24 -1 23 -27 67 -37 61 -4 -3 -9
11 -11 30 -3 30 -23 60 -42 60 -3 0 -13 -8 -23 -17z"/>
<path d="M3650 2310 c0 -5 5 -10 10 -10 6 0 10 5 10 10 0 6 -4 10 -10 10 -5 0
-10 -4 -10 -10z"/>
<path d="M3190 2300 c0 -5 10 -10 23 -10 18 0 19 2 7 10 -19 13 -30 13 -30 0z"/>
<path d="M2880 2286 c0 -2 7 -7 16 -10 8 -3 12 -2 9 4 -6 10 -25 14 -25 6z"/>
<path d="M3601 2281 c-7 -5 -10 -14 -6 -20 5 -9 10 -9 21 0 26 22 14 38 -15
20z"/>
<path d="M3186 2261 c-4 -7 -5 -15 -2 -18 9 -9 19 4 14 18 -4 11 -6 11 -12 0z"/>
<path d="M2934 2244 c3 -9 6 -18 6 -20 0 -2 4 -4 9 -4 5 0 7 9 4 20 -3 11 -10
20 -15 20 -6 0 -7 -7 -4 -16z"/>
<path d="M3585 2190 c-3 -5 1 -10 9 -10 8 0 18 5 21 10 3 6 -1 10 -9 10 -8 0
-18 -4 -21 -10z"/>
<path d="M2540 2143 c0 -22 25 -32 60 -23 l35 8 -35 1 c-20 1 -41 6 -48 13 -8
8 -12 8 -12 1z"/>
<path d="M445 2020 c-7 -70 4 -108 27 -94 5 3 4 12 -3 20 -11 14 -7 92 7 129
4 9 0 15 -9 15 -11 0 -17 -17 -22 -70z"/>
<path d="M2466 2060 c-3 -16 -9 -43 -12 -60 -5 -28 -24 -43 -24 -20 0 6 -7 10
-17 10 -9 0 -13 -3 -10 -7 4 -3 0 -14 -9 -24 -23 -26 -11 -49 28 -50 55 -3
242 2 248 6 4 2 5 23 4 47 -2 58 -2 60 -14 53 -6 -4 -8 -10 -5 -15 3 -4 -2
-10 -10 -14 -12 -4 -15 3 -15 34 0 28 -5 42 -18 49 -25 13 -42 -4 -42 -43 -1
-29 -1 -30 -15 -12 -8 11 -15 30 -15 43 0 25 -10 29 -28 11 -9 -9 -12 -8 -12
5 0 29 -28 19 -34 -13z m84 -66 c0 -8 -6 -14 -14 -14 -12 0 -14 10 -7 38 3 10
21 -11 21 -24z m-128 -56 c-9 -9 -15 -9 -24 0 -9 9 -7 12 12 12 19 0 21 -3 12
-12z"/>
<path d="M3038 2085 c-9 -10 41 -37 53 -29 5 3 14 -6 21 -20 6 -14 16 -26 22
-26 6 0 5 5 -2 12 -18 18 -14 32 11 44 25 11 47 8 47 -7 0 -4 -7 -6 -15 -3
-21 9 -19 -2 7 -28 l21 -21 23 26 c13 15 27 27 33 27 5 0 12 4 16 9 3 6 -3 10
-12 9 -10 0 -63 3 -118 7 -55 4 -103 4 -107 0z"/>
<path d="M2693 1996 c4 -10 7 -30 7 -45 0 -25 4 -28 35 -29 43 -2 44 3 5 23
-17 9 -30 23 -30 35 0 10 -5 22 -12 26 -8 5 -9 2 -5 -10z"/>
<path d="M3100 1974 c0 -8 5 -12 10 -9 6 4 8 11 5 16 -9 14 -15 11 -15 -7z"/>
<path d="M3115 1929 c11 -4 54 -8 95 -7 60 0 69 1 45 9 -37 11 -169 10 -140
-2z"/>
<path d="M2417 1869 c12 -4 25 -15 30 -23 8 -14 29 -20 93 -25 12 -1 12 -3 2
-10 -10 -6 -7 -10 12 -13 21 -4 25 -2 21 11 -3 12 2 16 21 17 27 2 73 46 54
52 -6 2 -17 -2 -25 -8 -9 -7 -15 -8 -15 -2 0 6 -41 10 -107 10 -66 -1 -99 -4
-86 -9z"/>
<path d="M3194 1853 c0 -10 -5 -17 -11 -15 -7 1 -13 -2 -13 -8 0 -5 7 -10 15
-10 11 0 13 -8 8 -32 -4 -22 -3 -29 5 -24 7 4 12 21 12 38 0 25 3 29 19 25 12
-3 22 1 25 9 5 12 -11 19 -36 15 -5 0 -8 4 -8 9 0 6 -4 10 -9 10 -5 0 -8 -8
-7 -17z"/>
<path d="M2660 1850 c0 -5 7 -10 15 -10 8 0 15 5 15 10 0 6 -7 10 -15 10 -8 0
-15 -4 -15 -10z"/>
<path d="M2738 1850 c-23 -14 -48 -67 -41 -86 3 -9 13 -14 24 -11 13 3 19 0
19 -10 0 -13 3 -13 16 -2 14 12 14 14 -3 20 -10 3 -21 5 -24 3 -4 -2 -12 2
-18 10 -9 10 -8 15 4 20 8 3 15 1 15 -5 0 -6 7 -8 16 -5 10 4 22 -1 30 -11 12
-17 13 -17 27 1 8 10 19 16 25 12 7 -4 12 -1 12 8 0 19 -30 21 -50 4 -12 -11
-12 -10 -1 4 10 14 9 20 -8 37 -24 24 -21 23 -43 11z"/>
<path d="M2395 1840 c-3 -5 -1 -10 4 -10 6 0 11 5 11 10 0 6 -2 10 -4 10 -3 0
-8 -4 -11 -10z"/>
<path d="M2660 1800 c0 -5 5 -10 11 -10 5 0 7 5 4 10 -3 6 -8 10 -11 10 -2 0
-4 -4 -4 -10z"/>
<path d="M1367 1660 c-3 -11 -2 -20 3 -20 12 0 21 28 11 35 -5 2 -11 -4 -14
-15z"/>
<path d="M1548 1653 c6 -2 18 -2 25 0 6 3 1 5 -13 5 -14 0 -19 -2 -12 -5z"/>
<path d="M1228 1643 c7 -3 16 -2 19 1 4 3 -2 6 -13 5 -11 0 -14 -3 -6 -6z"/>
<path d="M474 1595 c-15 -44 2 -95 33 -95 l23 0 -19 34 c-11 19 -21 47 -23 62
l-3 28 -11 -29z"/>
</g>
</svg>
