<?xml version="1.0" standalone="no"?>
<!DOCTYPE svg PUBLIC "-//W3C//DTD SVG 20010904//EN"
 "http://www.w3.org/TR/2001/REC-SVG-20010904/DTD/svg10.dtd">
<svg version="1.0" xmlns="http://www.w3.org/2000/svg"
 width="2048.000000pt" height="2048.000000pt" viewBox="0 0 2048.000000 2048.000000"
 preserveAspectRatio="xMidYMid meet">
<metadata>
Created by potrace 1.14, written by Peter Selinger 2001-2017
</metadata>
<g transform="translate(0.000000,2048.000000) scale(0.100000,-0.100000)"
fill="#000000" stroke="none">
<path d="M9205 20470 c-1164 -4 -2156 -12 -2325 -18 -561 -22 -1170 -67 -1635
-123 -134 -16 -792 -126 -925 -155 -403 -87 -893 -238 -1216 -375 -816 -345
-1448 -857 -1936 -1569 -251 -366 -489 -876 -639 -1370 -43 -142 -190 -735
-220 -885 -9 -47 -76 -483 -99 -642 -24 -170 -82 -823 -100 -1118 -21 -347
-32 -752 -55 -1905 -11 -574 -13 -1233 -9 -2870 5 -1954 7 -2154 25 -2480 34
-608 68 -1146 79 -1237 5 -49 21 -198 35 -333 26 -249 123 -867 170 -1085 88
-409 253 -944 385 -1255 337 -789 824 -1399 1507 -1888 64 -46 157 -107 207
-136 50 -29 138 -81 196 -114 195 -113 552 -270 847 -373 397 -137 1160 -304
1708 -373 566 -72 1507 -128 2460 -146 270 -5 1570 -12 2890 -16 2360 -6 2406
-6 2780 15 1356 75 1750 111 2350 211 198 32 412 71 475 85 443 100 906 243
1229 382 869 371 1531 933 2022 1715 215 342 460 916 583 1363 40 148 174 723
190 820 83 494 161 1213 191 1755 35 644 51 1931 60 4975 l7 1930 -26 300
c-14 165 -37 482 -51 705 -40 656 -106 1209 -216 1805 -70 380 -257 1009 -403
1359 -429 1023 -1168 1806 -2146 2273 -293 140 -662 278 -945 353 -176 47
-704 168 -827 190 -548 97 -1161 157 -2028 201 -593 29 -674 31 -1595 33 -533
2 -1883 0 -3000 -4z m-2584 -5898 c60 -31 113 -93 129 -150 13 -50 13 -215 -1
-263 -16 -51 -60 -103 -117 -137 l-47 -27 -2137 -3 -2138 -2 0 -3750 0 -3750
2128 0 c2117 0 2127 -1 2172 -21 64 -29 117 -84 136 -142 22 -66 16 -257 -9
-304 -22 -41 -78 -97 -120 -120 -30 -17 -152 -18 -2277 -21 -1502 -2 -2267 1
-2312 8 -194 29 -281 114 -322 312 -14 70 -16 456 -16 4045 0 4360 -4 4041 61
4164 35 65 79 107 146 140 101 49 14 47 2419 48 l2252 1 53 -28z m964 9 c22
-10 54 -29 70 -43 17 -14 579 -845 1250 -1847 671 -1001 1222 -1820 1225
-1820 3 -1 453 822 1000 1827 547 1005 1007 1839 1021 1853 41 38 93 49 241
49 124 0 138 -2 186 -26 80 -40 132 -127 132 -221 0 -41 -22 -111 -38 -123 -5
-3 -471 -853 -1037 -1890 -565 -1037 -1056 -1929 -1091 -1982 l-63 -97 34 -45
c19 -24 546 -939 1172 -2033 1127 -1971 1137 -1989 1141 -2050 4 -53 0 -71
-26 -126 -49 -106 -98 -127 -292 -127 -146 0 -190 10 -235 53 -19 19 -463 783
-1100 1895 -587 1024 -1069 1861 -1070 1860 -1 -2 -88 -142 -192 -313 -104
-170 -523 -848 -930 -1505 -407 -657 -833 -1348 -948 -1535 -114 -187 -222
-355 -239 -373 -63 -69 -93 -77 -267 -77 l-156 0 -49 30 c-68 42 -109 123
-108 209 1 34 8 77 16 97 14 33 2410 3884 2450 3939 10 14 34 49 53 78 l34 53
-30 42 c-117 162 -2611 3907 -2620 3935 -26 78 15 230 76 284 44 38 83 46 220
47 105 0 138 -3 170 -18z m9170 -8 c208 -34 319 -61 490 -118 353 -118 677
-296 892 -490 261 -236 482 -629 572 -1014 82 -348 93 -809 30 -1181 -67 -399
-236 -775 -487 -1087 -314 -390 -769 -601 -1482 -689 -172 -22 -1379 -33
-1443 -14 -48 14 -112 71 -140 124 -20 36 -22 56 -22 176 0 122 2 140 24 183
27 55 75 91 141 106 27 6 231 11 515 11 474 0 654 8 865 36 468 63 824 211
1032 431 117 124 244 349 313 557 71 212 105 436 105 697 0 501 -132 872 -405
1145 -216 215 -599 407 -957 478 -245 50 -230 49 -1300 53 l-1018 4 -2 -3958
c-3 -3802 -4 -3959 -21 -3994 -22 -44 -80 -104 -122 -127 -45 -25 -287 -24
-332 1 -42 22 -98 78 -120 120 -17 30 -18 231 -21 4077 -2 2762 1 4070 8 4125
29 226 114 322 317 359 65 12 270 14 1258 12 1153 -2 1183 -2 1310 -23z
m-10940 -3882 c47 -21 99 -76 120 -128 18 -42 21 -257 4 -316 -14 -52 -61
-102 -117 -124 -45 -17 -118 -18 -1442 -18 -1310 0 -1398 1 -1441 18 -54 21
-92 57 -115 112 -24 55 -25 274 -2 326 23 52 77 110 123 130 38 18 107 19
1435 19 1328 0 1397 -1 1435 -19z"/>
</g>
</svg>
