<?xml version="1.0" standalone="no"?>
<!DOCTYPE svg PUBLIC "-//W3C//DTD SVG 20010904//EN"
 "http://www.w3.org/TR/2001/REC-SVG-20010904/DTD/svg10.dtd">
<svg version="1.0" xmlns="http://www.w3.org/2000/svg"
 width="310.000000pt" height="310.000000pt" viewBox="0 0 310.000000 310.000000"
 preserveAspectRatio="xMidYMid meet">
<metadata>
Created by potrace 1.14, written by Peter Selinger 2001-2017
</metadata>
<g transform="translate(0.000000,310.000000) scale(0.100000,-0.100000)"
fill="#000000" stroke="none">
<path d="M1285 2981 c-330 -59 -651 -251 -866 -519 -146 -181 -247 -394 -296
-622 -26 -121 -26 -459 0 -580 35 -163 115 -359 200 -491 220 -342 596 -592
983 -653 131 -21 357 -21 488 0 335 53 667 249 887 522 146 181 247 394 296
622 26 121 26 459 0 580 -98 458 -396 831 -820 1030 -118 55 -245 95 -363 114
-137 22 -377 20 -509 -3z m-97 -843 c16 -16 15 -55 0 -65 -7 -4 -141 -10 -298
-13 l-285 -5 -3 -507 -2 -508 283 0 c311 0 321 -2 315 -55 l-3 -30 -316 -3
-315 -2 -25 26 -24 26 0 550 0 550 28 24 28 24 303 0 c221 0 305 -3 314 -12z
m170 -70 c27 -46 87 -148 132 -228 45 -80 89 -156 97 -169 l15 -23 22 33 c12
19 73 124 136 234 62 110 120 208 128 218 22 25 60 22 74 -8 12 -26 19 -12
-210 -408 -51 -88 -92 -163 -92 -167 0 -4 41 -79 91 -166 238 -413 223 -383
211 -410 -14 -29 -52 -32 -74 -6 -8 9 -75 122 -148 250 -82 145 -136 230 -142
224 -5 -5 -71 -117 -146 -248 -110 -192 -142 -240 -160 -242 -28 -4 -52 14
-52 40 0 10 70 140 155 288 l154 270 -154 270 c-85 148 -155 278 -155 288 0
24 19 42 46 42 18 0 34 -19 72 -82z m1138 50 c138 -73 208 -236 166 -384 -25
-87 -124 -186 -212 -213 -55 -16 -252 -22 -281 -8 -32 17 -36 51 -7 71 17 12
48 16 130 16 114 0 142 6 200 47 78 53 111 186 69 278 -23 51 -89 111 -138
124 -21 6 -100 11 -175 11 l-138 0 0 -536 c0 -350 -4 -542 -10 -555 -12 -21
-50 -25 -68 -7 -9 9 -12 151 -12 575 l0 564 25 25 26 26 187 -4 c181 -3 189
-4 238 -30z m-1418 -534 c15 -10 22 -24 20 -37 -6 -40 -39 -46 -245 -44 -160
2 -195 5 -203 17 -14 22 -12 47 6 64 23 24 389 24 422 0z"/>
</g>
</svg>
